<?xml version="1.0" encoding="utf-8"?>
<!-- Generator: Adobe Illustrator 27.9.4, SVG Export Plug-In . SVG Version: 9.03 Build 54784)  -->
<svg version="1.1" id="Layer_1" xmlns="http://www.w3.org/2000/svg" xmlns:xlink="http://www.w3.org/1999/xlink" x="0px" y="0px"
	 viewBox="170 750 1700 700" xml:space="preserve">
<style type="text/css">
	.st0{fill:#E2BF2D;}
</style>
<circle class="st0" cx="520.98" cy="1100.32" r="350.1"/>
<polyline points="298.25,1273.96 446.35,1273.96 411.46,1213.08 446.77,1147.95 521.25,1273.96 594.93,1273.96 484.6,1083.06 
	520.35,1020.26 666.87,1273.96 743.71,1273.96 521.12,889.51 "/>
<g>
	<path d="M1012.78,1131.3v40.52h54.58v29.79h-54.58v41.35h71.27v30.99H972.26v-173.64h111.79v30.98H1012.78z"/>
	<path d="M1149.35,1131.3v43.98h59.35v31.1h-59.35v67.57h-40.52v-173.64h111.79v30.98H1149.35z"/>
	<path d="M1385.91,1273.96h-36.47c-6.75,0-11.6-2.54-14.54-7.63l-28.84-50.41c-1.35-2.14-2.86-3.71-4.53-4.71
		c-1.67-0.99-4.05-1.49-7.15-1.49h-10.25v64.24h-40.28v-173.64h56.49c12.55,0,23.26,1.29,32.12,3.87
		c8.86,2.58,16.09,6.18,21.69,10.79c5.6,4.61,9.67,10.05,12.21,16.33c2.54,6.28,3.81,13.11,3.81,20.5c0,5.64-0.76,10.96-2.26,15.97
		c-1.51,5.01-3.74,9.63-6.67,13.88c-2.94,4.25-6.58,8.04-10.9,11.38c-4.33,3.34-9.32,6.08-14.96,8.22c2.62,1.35,5.08,3.04,7.39,5.06
		c2.3,2.03,4.37,4.43,6.2,7.21L1385.91,1273.96z M1300.34,1181.95c5.48,0,10.15-0.69,14-2.08c3.85-1.39,7.01-3.32,9.47-5.78
		c2.46-2.46,4.25-5.34,5.36-8.64c1.11-3.3,1.67-6.85,1.67-10.67c0-7.63-2.48-13.59-7.45-17.88c-4.97-4.29-12.65-6.44-23.06-6.44
		h-16.21v51.48H1300.34z"/>
	<path d="M1576.32,1273.96h-31.22c-3.5,0-6.32-0.81-8.46-2.44c-2.14-1.63-3.77-3.71-4.89-6.26l-10.25-30.27h-66.02l-10.25,30.27
		c-0.88,2.23-2.44,4.23-4.71,6.02c-2.26,1.79-5.07,2.68-8.4,2.68h-31.46l67.21-173.64h41.23L1576.32,1273.96z M1512.33,1207.58
		l-16.09-47.55c-1.19-3.02-2.46-6.57-3.81-10.67c-1.35-4.09-2.7-8.52-4.05-13.29c-1.19,4.85-2.46,9.34-3.81,13.47
		c-1.35,4.13-2.62,7.71-3.81,10.73l-15.97,47.31H1512.33z"/>
	<path d="M1641.63,1273.96h-40.52v-173.64h40.52V1273.96z"/>
	<path d="M1870.44,1100.32v173.64h-35.51v-99.87c0-2.3,0.06-4.81,0.18-7.51c0.12-2.7,0.34-5.44,0.66-8.22l-46.12,89.26
		c-1.43,2.78-3.36,4.89-5.78,6.32c-2.42,1.43-5.18,2.15-8.28,2.15h-5.48c-3.1,0-5.86-0.71-8.28-2.15c-2.42-1.43-4.35-3.53-5.78-6.32
		l-46.12-89.5c0.24,2.86,0.44,5.66,0.6,8.4c0.16,2.74,0.24,5.26,0.24,7.57v99.87h-35.51v-173.64h30.75c1.75,0,3.28,0.04,4.59,0.12
		c1.31,0.08,2.48,0.32,3.52,0.71c1.03,0.4,1.97,1.01,2.8,1.85c0.83,0.83,1.65,2.01,2.44,3.52l44.69,88.07
		c1.59,3.02,3.12,6.16,4.59,9.42c1.47,3.26,2.88,6.6,4.23,10.01c1.35-3.5,2.76-6.91,4.23-10.25c1.47-3.34,3.04-6.51,4.71-9.53
		l44.57-87.71c0.79-1.51,1.61-2.68,2.44-3.52c0.83-0.83,1.77-1.45,2.8-1.85c1.03-0.4,2.21-0.63,3.52-0.71
		c1.31-0.08,2.84-0.12,4.59-0.12H1870.44z"/>
</g>
<g>
	<path d="M1016.84,890.19c17.04,0,29.71,3.41,38.01,10.23c8.3,6.82,12.45,16.49,12.45,29.01c0,4.37-0.82,8.58-2.44,12.62
		c-1.63,4.04-3.91,7.72-6.84,11.06c-2.93,3.33-6.48,6.19-10.67,8.56c-4.19,2.37-8.84,4.04-13.95,5c6.37,0.67,12.08,2.02,17.12,4.06
		c5.04,2.04,9.32,4.67,12.84,7.89c3.52,3.22,6.21,7.04,8.06,11.45c1.85,4.41,2.78,9.32,2.78,14.73c0,6.67-1.15,12.58-3.45,17.73
		c-2.3,5.15-5.65,9.5-10.06,13.06c-4.41,3.56-9.8,6.26-16.17,8.11c-6.37,1.85-13.64,2.78-21.79,2.78h-48.24V890.19H1016.84z
		 M980.61,895.08v69.91h37.01c7.85,0,14.54-1.06,20.06-3.17c5.52-2.11,10.04-4.85,13.56-8.22c3.52-3.37,6.08-7.15,7.67-11.34
		c1.59-4.19,2.39-8.32,2.39-12.39c0-11.19-3.65-19.78-10.95-25.79c-7.3-6-18.47-9-33.51-9H980.61z M1022.73,1041.46
		c14.6,0,25.81-3.13,33.62-9.39c7.82-6.26,11.73-15.39,11.73-27.4c0-5.41-1.06-10.26-3.17-14.56c-2.11-4.3-5.11-7.96-9-11
		c-3.89-3.04-8.63-5.37-14.23-7c-5.6-1.63-11.88-2.45-18.84-2.45h-42.24v71.8H1022.73z"/>
	<path d="M1119.43,1046.46h-6.11V890.19h6.11V1046.46z"/>
	<path d="M1242.8,906.42c-0.44,0.74-1.07,1.11-1.89,1.11c-0.82,0-1.94-0.72-3.39-2.17c-1.45-1.44-3.47-3.06-6.06-4.83
		c-2.6-1.78-5.93-3.39-10-4.84c-4.08-1.44-9.11-2.17-15.12-2.17c-6.08,0-11.47,0.91-16.17,2.72c-4.71,1.82-8.65,4.28-11.84,7.39
		c-3.19,3.11-5.59,6.69-7.22,10.73c-1.63,4.04-2.44,8.28-2.44,12.73c0,5.71,1.15,10.47,3.45,14.28c2.3,3.82,5.33,7.02,9.11,9.61
		c3.78,2.59,8.06,4.78,12.84,6.56c4.78,1.78,9.69,3.5,14.73,5.17c5.04,1.67,9.95,3.45,14.73,5.34c4.78,1.89,9.06,4.28,12.84,7.17
		c3.78,2.89,6.82,6.47,9.11,10.73c2.3,4.26,3.45,9.54,3.45,15.84c0,6.45-1.09,12.5-3.28,18.17c-2.19,5.67-5.37,10.6-9.56,14.78
		c-4.19,4.19-9.3,7.48-15.34,9.89c-6.04,2.41-12.91,3.61-20.62,3.61c-5.26,0-10.02-0.46-14.28-1.39s-8.19-2.26-11.78-4
		c-3.59-1.74-6.89-3.87-9.89-6.39c-3-2.52-5.87-5.37-8.61-8.56l1.44-2.22c0.37-0.37,0.68-0.65,0.95-0.83
		c0.26-0.18,0.65-0.28,1.17-0.28c0.52,0,1.24,0.46,2.17,1.39c0.93,0.93,2.13,2.07,3.61,3.45c1.48,1.37,3.26,2.85,5.34,4.45
		c2.07,1.59,4.54,3.08,7.39,4.45c2.85,1.37,6.15,2.52,9.89,3.45c3.74,0.93,7.98,1.39,12.73,1.39c6.74,0,12.78-1.06,18.12-3.17
		c5.34-2.11,9.84-5,13.5-8.67c3.67-3.67,6.46-7.95,8.39-12.84c1.93-4.89,2.89-10.11,2.89-15.67c0-5.93-1.15-10.82-3.45-14.67
		c-2.3-3.85-5.32-7.08-9.06-9.67c-3.74-2.59-8.02-4.76-12.84-6.5c-4.82-1.74-9.73-3.41-14.73-5c-5-1.59-9.91-3.33-14.73-5.22
		c-4.82-1.89-9.1-4.3-12.84-7.22c-3.74-2.93-6.76-6.56-9.06-10.89c-2.3-4.33-3.45-9.76-3.45-16.28c0-5.11,0.96-10,2.89-14.67
		c1.93-4.67,4.72-8.8,8.39-12.39c3.67-3.59,8.19-6.46,13.56-8.61c5.37-2.15,11.54-3.22,18.51-3.22c7.85,0,14.8,1.26,20.84,3.78
		c6.04,2.52,11.69,6.45,16.95,11.78L1242.8,906.42z"/>
	<path d="M1379.62,1041.24l-0.22,5.22h-92.25V890.19h92.25v5.22h-86.14v69.24h72.58v5.11h-72.58v71.47H1379.62z"/>
	<path d="M1520.11,1046.46h-5c-0.82,0-1.54-0.11-2.17-0.33c-0.63-0.22-1.24-0.74-1.83-1.56l-55.13-67.47c-0.59-0.81-1.2-1.48-1.83-2
		c-0.63-0.52-1.33-0.94-2.11-1.28c-0.78-0.33-1.71-0.57-2.78-0.72c-1.07-0.15-2.39-0.22-3.95-0.22h-22.79v73.58h-6.11V890.19h37.68
		c16.97,0,29.86,3.3,38.68,9.89c8.82,6.6,13.23,16.6,13.23,30.01c0,6.15-1.15,11.73-3.45,16.73c-2.3,5-5.52,9.34-9.67,13
		c-4.15,3.67-9.19,6.6-15.12,8.78c-5.93,2.19-12.49,3.5-19.67,3.95c1.33,0.74,2.63,1.85,3.89,3.33L1520.11,1046.46z M1422.52,968.22
		h29.79c7.34,0,13.95-0.87,19.84-2.61c5.89-1.74,10.89-4.26,15-7.56c4.11-3.3,7.26-7.28,9.45-11.95c2.18-4.67,3.28-9.93,3.28-15.78
		c0-12.08-3.93-20.97-11.78-26.68c-7.85-5.71-19.19-8.56-34.01-8.56h-31.57V968.22z"/>
	<path d="M1555.23,1046.46h-6.11V890.19h6.11V1046.46z"/>
	<path d="M1719.17,1023.23c0.3,0,0.7,0.19,1.22,0.56l2.33,2.44c-3.26,3.26-6.78,6.24-10.56,8.95c-3.78,2.71-7.93,5.02-12.45,6.95
		c-4.52,1.93-9.47,3.43-14.84,4.5c-5.37,1.07-11.28,1.61-17.73,1.61c-10.6,0-20.36-1.87-29.29-5.61
		c-8.93-3.74-16.62-9.08-23.06-16.01c-6.45-6.93-11.49-15.32-15.12-25.18c-3.63-9.85-5.45-20.9-5.45-33.12
		c0-11.93,1.81-22.8,5.45-32.62c3.63-9.82,8.76-18.23,15.39-25.23c6.63-7,14.56-12.43,23.79-16.28c9.22-3.85,19.39-5.78,30.51-5.78
		c10.45,0,19.71,1.59,27.79,4.78c8.08,3.19,15.6,7.78,22.56,13.78l-1.67,2.45c-0.3,0.52-0.89,0.78-1.78,0.78
		c-0.44,0-1.2-0.41-2.28-1.22c-1.07-0.81-2.48-1.83-4.22-3.06c-1.74-1.22-3.85-2.56-6.34-4c-2.48-1.45-5.39-2.78-8.72-4
		c-3.34-1.22-7.11-2.24-11.34-3.06c-4.22-0.81-8.89-1.22-14-1.22c-10.08,0-19.34,1.74-27.79,5.22c-8.45,3.48-15.71,8.45-21.78,14.89
		c-6.08,6.45-10.8,14.28-14.17,23.51c-3.37,9.23-5.06,19.58-5.06,31.07c0,11.71,1.68,22.17,5.06,31.4
		c3.37,9.23,8.06,17.04,14.06,23.45c6,6.41,13.08,11.32,21.23,14.73c8.15,3.41,17.01,5.11,26.56,5.11c6,0,11.37-0.41,16.12-1.22
		c4.74-0.81,9.09-2.04,13.06-3.67c3.96-1.63,7.63-3.63,11-6c3.37-2.37,6.72-5.07,10.06-8.11
		C1718.24,1023.49,1718.73,1023.23,1719.17,1023.23z"/>
	<path d="M1870.44,1046.46h-4.78c-1.11,0-1.93-0.63-2.45-1.89l-20.34-49.46h-80.25l-20.34,49.46c-0.37,1.26-1.22,1.89-2.56,1.89
		h-4.56l64.69-156.27h5.89L1870.44,1046.46z M1840.88,990.45l-35.79-87.03c-0.82-2-1.59-4.22-2.33-6.67
		c-0.67,2.45-1.44,4.67-2.33,6.67l-35.79,87.03H1840.88z"/>
</g>
</svg>
